<?xml version="1.0" encoding="UTF-8" standalone="no"?>
<!-- Generator: Adobe Illustrator 25.4.1, SVG Export Plug-In . SVG Version: 6.00 Build 0)  -->

<svg
   version="1.1"
   id="Layer_1"
   x="0px"
   y="0px"
   viewBox="0 0 417.36 117.18"
   xml:space="preserve"
   sodipodi:docname="logo.svg"
   width="417.35999"
   height="117.17999"
   inkscape:version="1.1 (c68e22c387, 2021-05-23)"
   xmlns:inkscape="http://www.inkscape.org/namespaces/inkscape"
   xmlns:sodipodi="http://sodipodi.sourceforge.net/DTD/sodipodi-0.dtd"
   xmlns="http://www.w3.org/2000/svg"
   xmlns:svg="http://www.w3.org/2000/svg"><defs
   id="defs75" /><sodipodi:namedview
   id="namedview73"
   pagecolor="#ffffff"
   bordercolor="#999999"
   borderopacity="1"
   inkscape:pageshadow="0"
   inkscape:pageopacity="0"
   inkscape:pagecheckerboard="0"
   showgrid="false"
   height="117.17999px"
   inkscape:zoom="3.3064981"
   inkscape:cx="198.09478"
   inkscape:cy="66.989302"
   inkscape:window-width="2400"
   inkscape:window-height="1271"
   inkscape:window-x="2391"
   inkscape:window-y="-9"
   inkscape:window-maximized="1"
   inkscape:current-layer="Layer_1" />
<style
   type="text/css"
   id="style2">
	.st0{fill:#004A80;}
	.st1{fill:#F26522;}
	.st2{fill:#B02A30;}
	.st3{fill:#FFFFFF;}
</style>
<g
   id="g70"
   transform="matrix(1.0408427,0,0,1.0408427,-8.1645741,-11.236277)">
	<g
   id="g68">
		<g
   id="g66">
			<g
   id="g64">
				<g
   id="g16">
					<g
   id="g14">
						<path
   class="st0"
   d="m 132.5,12.89 h 18.45 L 136.47,66.9 h -18.44 z"
   id="path4" />
						<path
   class="st0"
   d="m 227.27,12.89 h 18.45 L 231.24,66.9 H 212.8 Z"
   id="path6" />
						<path
   class="st0"
   d="m 322.03,12.89 h 18.43 L 325.99,66.9 h -18.43 z"
   id="path8" />
						<path
   class="st0"
   d="m 187.71,23.76 c -9,0 -15.75,5.88 -18.61,16.58 -2.75,10.24 0.76,15.91 9.68,15.91 6.55,0 11.39,-3.18 13.98,-9.29 H 211.3 C 206.26,60.83 194.52,67 174.59,67 c -19.7,0 -28.24,-9.8 -23.92,-25.95 4.76,-17.81 19,-28.04 39.93,-28.04 18.09,0 25.93,6.25 23.49,18.38 h -18.47 c 0.43,-5.09 -2.22,-7.63 -7.91,-7.63 z"
   id="path10" />
						<path
   class="st0"
   d="m 282.48,23.76 c -9,0 -15.78,5.88 -18.62,16.58 -2.75,10.24 0.75,15.91 9.69,15.91 6.54,0 11.4,-3.18 13.98,-9.29 h 18.55 C 301.03,60.83 289.26,67 269.36,67 c -19.69,0 -28.24,-9.8 -23.93,-25.95 4.78,-17.81 18.99,-28.04 39.94,-28.04 18.1,0 25.96,6.25 23.5,18.38 H 290.4 c 0.41,-5.09 -2.25,-7.63 -7.92,-7.63 z"
   id="path12" />
					</g>
				</g>
				<g
   id="g50">
					<g
   id="g48">
						<path
   class="st0"
   d="M 101.88,113.36 118.54,89.17 H 122 l 2.28,24.19 h -3.4 l -0.59,-6.02 h -10.76 l -4.07,6.02 z m 9.61,-8.8 h 8.59 l -0.94,-11.61 z"
   id="path18" />
						<path
   class="st0"
   d="m 131.47,107.89 c -0.12,0.33 -0.21,0.61 -0.25,0.84 -0.05,0.23 -0.07,0.44 -0.07,0.64 0,0.67 0.22,1.16 0.67,1.49 0.45,0.33 1.13,0.49 2.05,0.49 1.24,0 2.24,-0.26 3,-0.79 0.77,-0.52 1.15,-1.2 1.15,-2.03 0,-0.48 -0.19,-0.91 -0.57,-1.3 -0.38,-0.38 -1.18,-0.88 -2.42,-1.49 -1.65,-0.81 -2.79,-1.55 -3.4,-2.22 -0.62,-0.67 -0.93,-1.45 -0.93,-2.34 0,-1.48 0.63,-2.69 1.89,-3.65 1.26,-0.96 2.91,-1.44 4.97,-1.44 1.84,0 3.19,0.28 4.06,0.84 0.87,0.56 1.3,1.42 1.3,2.59 0,0.16 -0.01,0.36 -0.03,0.58 -0.02,0.22 -0.07,0.53 -0.13,0.93 h -2.95 c 0.03,-0.16 0.06,-0.32 0.07,-0.47 0.02,-0.15 0.02,-0.29 0.02,-0.43 0,-0.66 -0.21,-1.14 -0.64,-1.45 -0.43,-0.31 -1.09,-0.47 -1.98,-0.47 -1,0 -1.79,0.23 -2.39,0.68 -0.6,0.45 -0.89,1.05 -0.89,1.78 0,0.46 0.18,0.87 0.53,1.22 0.35,0.36 1.19,0.87 2.52,1.53 1.87,0.94 3.06,1.72 3.57,2.35 0.51,0.63 0.76,1.41 0.76,2.35 0,1.59 -0.75,2.92 -2.24,3.99 -1.49,1.08 -3.38,1.62 -5.65,1.62 -1.78,0 -3.16,-0.34 -4.14,-1.01 -0.98,-0.67 -1.47,-1.62 -1.47,-2.83 0,-0.28 0.03,-0.59 0.09,-0.93 0.06,-0.33 0.16,-0.7 0.29,-1.09 h 3.21 z"
   id="path20" />
						<path
   class="st0"
   d="m 148.03,107.89 c -0.12,0.33 -0.21,0.61 -0.25,0.84 -0.05,0.23 -0.07,0.44 -0.07,0.64 0,0.67 0.22,1.16 0.67,1.49 0.45,0.33 1.13,0.49 2.05,0.49 1.24,0 2.24,-0.26 3,-0.79 0.77,-0.52 1.15,-1.2 1.15,-2.03 0,-0.48 -0.19,-0.91 -0.57,-1.3 -0.38,-0.38 -1.18,-0.88 -2.42,-1.49 -1.65,-0.81 -2.79,-1.55 -3.4,-2.22 -0.62,-0.67 -0.93,-1.45 -0.93,-2.34 0,-1.48 0.63,-2.69 1.89,-3.65 1.26,-0.96 2.91,-1.44 4.97,-1.44 1.84,0 3.19,0.28 4.06,0.84 0.87,0.56 1.3,1.42 1.3,2.59 0,0.16 -0.01,0.36 -0.03,0.58 -0.02,0.22 -0.07,0.53 -0.13,0.93 h -2.95 c 0.03,-0.16 0.06,-0.32 0.07,-0.47 0.02,-0.15 0.02,-0.29 0.02,-0.43 0,-0.66 -0.21,-1.14 -0.64,-1.45 -0.43,-0.31 -1.09,-0.47 -1.98,-0.47 -1,0 -1.79,0.23 -2.39,0.68 -0.6,0.45 -0.89,1.05 -0.89,1.78 0,0.46 0.18,0.87 0.53,1.22 0.35,0.36 1.19,0.87 2.52,1.53 1.87,0.94 3.06,1.72 3.57,2.35 0.51,0.63 0.76,1.41 0.76,2.35 0,1.59 -0.75,2.92 -2.24,3.99 -1.49,1.08 -3.38,1.62 -5.65,1.62 -1.78,0 -3.16,-0.34 -4.14,-1.01 -0.98,-0.67 -1.47,-1.62 -1.47,-2.83 0,-0.28 0.03,-0.59 0.09,-0.93 0.06,-0.33 0.16,-0.7 0.29,-1.09 h 3.21 z"
   id="path22" />
						<path
   class="st0"
   d="m 176.19,108.46 c -0.56,1.67 -1.56,2.98 -3.01,3.93 -1.45,0.95 -3.19,1.42 -5.22,1.42 -1.91,0 -3.39,-0.47 -4.43,-1.42 -1.04,-0.95 -1.56,-2.3 -1.56,-4.06 0,-1.31 0.27,-2.79 0.8,-4.44 0.53,-1.65 1.19,-3.06 1.99,-4.23 0.81,-1.17 1.81,-2.06 2.99,-2.66 1.19,-0.6 2.54,-0.9 4.06,-0.9 2.11,0 3.66,0.42 4.66,1.25 1,0.83 1.49,2.13 1.49,3.9 0,0.65 -0.05,1.31 -0.16,2.01 -0.1,0.69 -0.27,1.41 -0.48,2.16 h -11.71 c -0.17,0.48 -0.31,0.95 -0.4,1.42 -0.09,0.46 -0.14,0.88 -0.14,1.25 0,1.06 0.29,1.88 0.89,2.44 0.59,0.57 1.43,0.85 2.51,0.85 0.94,0 1.78,-0.25 2.51,-0.75 0.73,-0.5 1.31,-1.22 1.72,-2.17 z m -9.84,-5.35 h 8.28 c 0.12,-0.56 0.2,-0.99 0.25,-1.3 0.04,-0.31 0.07,-0.58 0.07,-0.82 0,-0.92 -0.29,-1.63 -0.88,-2.13 -0.58,-0.5 -1.41,-0.75 -2.48,-0.75 -1.25,0 -2.31,0.42 -3.19,1.26 -0.89,0.85 -1.57,2.09 -2.05,3.74 z"
   id="path24" />
						<path
   class="st0"
   d="m 186.82,113.36 c -0.62,0.09 -1.18,0.15 -1.68,0.2 -0.5,0.04 -0.96,0.07 -1.4,0.07 -1.2,0 -2.07,-0.2 -2.6,-0.61 -0.53,-0.4 -0.8,-1.06 -0.8,-1.97 0,-0.34 0.07,-0.87 0.21,-1.59 0.14,-0.72 0.33,-1.48 0.56,-2.28 l 2.56,-8.5 h -2.98 l 0.67,-2.18 h 2.98 l 1.15,-3.84 3.28,-0.77 -1.34,4.61 h 3.53 l -0.67,2.18 h -3.53 l -2.61,8.84 c -0.21,0.68 -0.35,1.19 -0.43,1.53 -0.08,0.34 -0.11,0.6 -0.11,0.78 0,0.48 0.14,0.83 0.43,1.03 0.29,0.21 0.78,0.31 1.48,0.31 0.34,0 0.68,-0.02 1.02,-0.07 0.34,-0.05 0.68,-0.12 1.02,-0.22 z"
   id="path26" />
						<path
   class="st0"
   d="m 199.79,113.36 7.36,-24.19 h 5.53 l 0.85,19.73 12.22,-19.73 h 5.89 l -6.28,24.19 h -3.4 l 5.77,-21.76 -13.81,21.76 h -3.43 l -0.97,-21.76 -6.51,21.76 z"
   id="path28" />
						<path
   class="st0"
   d="m 241.38,113.36 c 0.03,-0.44 0.07,-0.86 0.12,-1.26 0.05,-0.4 0.11,-0.8 0.17,-1.2 -0.81,0.94 -1.68,1.64 -2.62,2.1 -0.94,0.46 -1.93,0.69 -2.99,0.69 -1.43,0 -2.57,-0.4 -3.41,-1.2 -0.84,-0.8 -1.26,-1.88 -1.26,-3.23 0,-2.07 0.96,-3.68 2.89,-4.85 1.92,-1.17 4.61,-1.75 8.07,-1.75 0.42,0 0.73,0 0.94,0.01 0.21,0.01 0.41,0.01 0.6,0.02 0.15,-0.56 0.26,-1.02 0.34,-1.39 0.07,-0.37 0.11,-0.68 0.11,-0.94 0,-0.72 -0.3,-1.28 -0.9,-1.67 -0.6,-0.39 -1.48,-0.58 -2.62,-0.58 -0.86,0 -1.57,0.21 -2.12,0.62 -0.55,0.42 -0.96,1.06 -1.25,1.94 h -3.3 c 0.33,-1.45 1.13,-2.59 2.42,-3.4 1.29,-0.81 2.92,-1.21 4.91,-1.21 1.83,0 3.27,0.38 4.34,1.12 1.07,0.75 1.6,1.76 1.6,3.04 0,0.33 -0.04,0.71 -0.12,1.13 -0.08,0.43 -0.2,0.96 -0.38,1.59 l -1.38,4.74 c -0.28,0.96 -0.52,1.92 -0.72,2.86 -0.2,0.94 -0.35,1.88 -0.46,2.81 h -2.98 z m 2.05,-8.62 c -0.04,-0.01 -0.1,-0.02 -0.16,-0.02 -0.6,-0.03 -1.06,-0.05 -1.36,-0.05 -2.29,0 -4.08,0.39 -5.39,1.16 -1.31,0.77 -1.96,1.82 -1.96,3.14 0,0.71 0.24,1.3 0.71,1.77 0.47,0.47 1.06,0.71 1.76,0.71 1.45,0 2.71,-0.56 3.78,-1.68 1.07,-1.13 1.94,-2.8 2.62,-5.03 z"
   id="path30" />
						<path
   class="st0"
   d="m 249.3,113.36 3.53,-11.92 c 0.17,-0.59 0.35,-1.3 0.53,-2.13 0.18,-0.83 0.36,-1.77 0.53,-2.8 h 3.13 l -0.8,3.26 c 0.97,-1.17 2,-2.04 3.08,-2.62 1.08,-0.58 2.23,-0.87 3.43,-0.87 1.38,0 2.47,0.38 3.26,1.15 0.8,0.77 1.2,1.82 1.2,3.15 0,0.36 -0.05,0.79 -0.14,1.29 -0.09,0.5 -0.23,1.1 -0.42,1.8 l -2.87,9.71 h -3.15 l 2.95,-9.97 c 0.16,-0.56 0.28,-1.04 0.36,-1.44 0.08,-0.4 0.12,-0.74 0.12,-1.02 0,-0.73 -0.21,-1.32 -0.64,-1.77 -0.43,-0.45 -0.97,-0.67 -1.64,-0.67 -1.43,0 -2.8,0.62 -4.1,1.85 -1.3,1.24 -2.23,2.81 -2.79,4.72 l -2.43,8.3 h -3.14 z"
   id="path32" />
						<path
   class="st0"
   d="m 279.74,113.36 c 0.03,-0.44 0.07,-0.86 0.12,-1.26 0.05,-0.4 0.11,-0.8 0.17,-1.2 -0.81,0.94 -1.68,1.64 -2.62,2.1 -0.93,0.46 -1.93,0.69 -2.99,0.69 -1.43,0 -2.57,-0.4 -3.41,-1.2 -0.84,-0.8 -1.26,-1.88 -1.26,-3.23 0,-2.07 0.96,-3.68 2.89,-4.85 1.92,-1.17 4.61,-1.75 8.07,-1.75 0.42,0 0.73,0 0.94,0.01 0.21,0.01 0.41,0.01 0.6,0.02 0.15,-0.56 0.27,-1.02 0.34,-1.39 0.07,-0.37 0.11,-0.68 0.11,-0.94 0,-0.72 -0.3,-1.28 -0.9,-1.67 -0.6,-0.39 -1.48,-0.58 -2.62,-0.58 -0.86,0 -1.57,0.21 -2.12,0.62 -0.55,0.42 -0.96,1.06 -1.25,1.94 h -3.3 c 0.33,-1.45 1.13,-2.59 2.42,-3.4 1.28,-0.81 2.92,-1.21 4.91,-1.21 1.83,0 3.27,0.38 4.34,1.12 1.07,0.75 1.6,1.76 1.6,3.04 0,0.33 -0.04,0.71 -0.12,1.13 -0.08,0.43 -0.2,0.96 -0.38,1.59 l -1.38,4.74 c -0.28,0.96 -0.52,1.92 -0.72,2.86 -0.2,0.95 -0.35,1.88 -0.46,2.81 h -2.98 z m 2.05,-8.62 c -0.04,-0.01 -0.1,-0.02 -0.16,-0.02 -0.6,-0.03 -1.06,-0.05 -1.36,-0.05 -2.29,0 -4.08,0.39 -5.39,1.16 -1.31,0.77 -1.96,1.82 -1.96,3.14 0,0.71 0.24,1.3 0.71,1.77 0.47,0.47 1.06,0.71 1.76,0.71 1.45,0 2.71,-0.56 3.78,-1.68 1.07,-1.13 1.94,-2.8 2.62,-5.03 z"
   id="path34" />
						<path
   class="st0"
   d="m 299.34,110.31 c -0.76,0.84 -1.55,1.46 -2.35,1.85 -0.8,0.39 -1.68,0.59 -2.62,0.59 -1.6,0 -2.85,-0.49 -3.75,-1.48 -0.9,-0.99 -1.35,-2.36 -1.35,-4.13 0,-1.18 0.23,-2.44 0.68,-3.78 0.45,-1.34 1.08,-2.57 1.88,-3.68 0.73,-1.05 1.67,-1.88 2.83,-2.48 1.15,-0.6 2.36,-0.9 3.62,-0.9 1.19,0 2.18,0.24 2.95,0.72 0.78,0.48 1.28,1.17 1.51,2.07 l 0.74,-2.59 h 2.97 l -4.51,14.91 c -1.04,3.47 -2.22,5.77 -3.53,6.9 -1.32,1.14 -3.22,1.71 -5.7,1.71 -1.67,0 -2.99,-0.37 -3.96,-1.11 -0.97,-0.74 -1.45,-1.73 -1.45,-2.96 0,-0.18 0.02,-0.37 0.06,-0.58 0.04,-0.21 0.1,-0.47 0.19,-0.76 h 3.12 c -0.07,0.33 -0.11,0.57 -0.13,0.73 -0.02,0.16 -0.03,0.29 -0.03,0.4 0,0.7 0.24,1.25 0.72,1.64 0.48,0.39 1.15,0.59 2,0.59 1.43,0 2.54,-0.42 3.34,-1.26 0.77,-0.84 1.7,-2.98 2.77,-6.4 z m -0.74,-12.2 c -0.74,0 -1.46,0.22 -2.16,0.66 -0.7,0.44 -1.34,1.1 -1.93,1.96 -0.65,0.93 -1.16,1.99 -1.54,3.18 -0.38,1.19 -0.57,2.29 -0.57,3.3 0,1.05 0.27,1.87 0.8,2.47 0.54,0.6 1.27,0.89 2.21,0.89 0.8,0 1.54,-0.21 2.23,-0.62 0.69,-0.41 1.32,-1.02 1.9,-1.83 0.63,-0.9 1.17,-2 1.62,-3.31 0.44,-1.31 0.66,-2.43 0.66,-3.35 0,-1.01 -0.3,-1.82 -0.89,-2.44 -0.59,-0.6 -1.37,-0.91 -2.33,-0.91 z"
   id="path36" />
						<path
   class="st0"
   d="m 323.01,108.46 c -0.56,1.67 -1.56,2.98 -3.01,3.93 -1.45,0.95 -3.19,1.42 -5.22,1.42 -1.91,0 -3.39,-0.47 -4.43,-1.42 -1.04,-0.95 -1.56,-2.3 -1.56,-4.06 0,-1.31 0.26,-2.79 0.79,-4.44 0.53,-1.65 1.19,-3.06 1.99,-4.23 0.81,-1.17 1.81,-2.06 2.99,-2.66 1.19,-0.6 2.54,-0.9 4.06,-0.9 2.11,0 3.66,0.42 4.66,1.25 0.99,0.83 1.49,2.13 1.49,3.9 0,0.65 -0.05,1.31 -0.16,2.01 -0.1,0.69 -0.26,1.41 -0.48,2.16 h -11.71 c -0.17,0.48 -0.31,0.95 -0.4,1.42 -0.09,0.46 -0.14,0.88 -0.14,1.25 0,1.06 0.29,1.88 0.89,2.44 0.59,0.57 1.43,0.85 2.51,0.85 0.94,0 1.78,-0.25 2.51,-0.75 0.73,-0.5 1.31,-1.22 1.72,-2.17 z m -9.84,-5.35 h 8.28 c 0.12,-0.56 0.2,-0.99 0.25,-1.3 0.04,-0.31 0.07,-0.58 0.07,-0.82 0,-0.92 -0.29,-1.63 -0.88,-2.13 -0.59,-0.5 -1.41,-0.75 -2.48,-0.75 -1.25,0 -2.31,0.42 -3.19,1.26 -0.89,0.85 -1.57,2.09 -2.05,3.74 z"
   id="path38" />
						<path
   class="st0"
   d="m 326.16,113.36 3.21,-10.96 c 0.13,-0.46 0.32,-1.23 0.56,-2.3 0.24,-1.08 0.49,-2.28 0.75,-3.6 h 3.1 l -0.82,3.26 c 0.96,-1.17 1.98,-2.04 3.06,-2.62 1.08,-0.58 2.21,-0.87 3.4,-0.87 1.25,0 2.27,0.34 3.07,1.01 0.8,0.67 1.24,1.58 1.33,2.71 1.16,-1.3 2.28,-2.25 3.36,-2.84 1.08,-0.59 2.22,-0.89 3.43,-0.89 1.36,0 2.43,0.39 3.23,1.16 0.8,0.77 1.2,1.82 1.2,3.14 0,0.38 -0.05,0.84 -0.14,1.36 -0.09,0.52 -0.23,1.1 -0.4,1.72 l -2.85,9.71 h -3.12 l 2.95,-9.97 c 0.14,-0.51 0.25,-0.97 0.33,-1.36 0.08,-0.39 0.11,-0.75 0.11,-1.07 0,-0.74 -0.21,-1.34 -0.63,-1.8 -0.42,-0.45 -0.96,-0.68 -1.63,-0.68 -1.43,0 -2.79,0.61 -4.06,1.84 -1.27,1.22 -2.19,2.8 -2.75,4.74 l -2.39,8.3 h -3.12 l 2.95,-9.97 c 0.14,-0.51 0.25,-0.97 0.33,-1.36 0.08,-0.39 0.12,-0.75 0.12,-1.07 0,-0.74 -0.21,-1.34 -0.63,-1.8 -0.42,-0.45 -0.96,-0.68 -1.63,-0.68 -1.43,0 -2.78,0.61 -4.05,1.82 -1.27,1.21 -2.19,2.8 -2.75,4.76 l -2.39,8.3 h -3.13 z"
   id="path40" />
						<path
   class="st0"
   d="m 372.5,108.46 c -0.56,1.67 -1.56,2.98 -3.01,3.93 -1.45,0.95 -3.19,1.42 -5.22,1.42 -1.91,0 -3.39,-0.47 -4.43,-1.42 -1.04,-0.95 -1.56,-2.3 -1.56,-4.06 0,-1.31 0.26,-2.79 0.79,-4.44 0.53,-1.65 1.19,-3.06 1.99,-4.23 0.81,-1.17 1.81,-2.06 2.99,-2.66 1.19,-0.6 2.54,-0.9 4.06,-0.9 2.11,0 3.66,0.42 4.66,1.25 0.99,0.83 1.49,2.13 1.49,3.9 0,0.65 -0.05,1.31 -0.16,2.01 -0.1,0.69 -0.26,1.41 -0.48,2.16 h -11.71 c -0.17,0.48 -0.31,0.95 -0.4,1.42 -0.09,0.46 -0.14,0.88 -0.14,1.25 0,1.06 0.29,1.88 0.89,2.44 0.59,0.57 1.43,0.85 2.51,0.85 0.94,0 1.78,-0.25 2.51,-0.75 0.73,-0.5 1.31,-1.22 1.72,-2.17 z m -9.84,-5.35 h 8.28 c 0.12,-0.56 0.2,-0.99 0.25,-1.3 0.04,-0.31 0.07,-0.58 0.07,-0.82 0,-0.92 -0.29,-1.63 -0.88,-2.13 -0.59,-0.5 -1.41,-0.75 -2.48,-0.75 -1.25,0 -2.31,0.42 -3.19,1.26 -0.89,0.85 -1.57,2.09 -2.05,3.74 z"
   id="path42" />
						<path
   class="st0"
   d="m 375.65,113.36 3.53,-11.92 c 0.17,-0.59 0.35,-1.3 0.53,-2.13 0.18,-0.83 0.36,-1.77 0.53,-2.8 h 3.13 l -0.8,3.26 c 0.97,-1.17 2,-2.04 3.08,-2.62 1.08,-0.58 2.23,-0.87 3.43,-0.87 1.38,0 2.47,0.38 3.26,1.15 0.8,0.77 1.2,1.82 1.2,3.15 0,0.36 -0.05,0.79 -0.14,1.29 -0.09,0.5 -0.23,1.1 -0.42,1.8 l -2.87,9.71 h -3.15 l 2.95,-9.97 c 0.16,-0.56 0.28,-1.04 0.36,-1.44 0.08,-0.4 0.12,-0.74 0.12,-1.02 0,-0.73 -0.21,-1.32 -0.64,-1.77 -0.43,-0.45 -0.97,-0.67 -1.64,-0.67 -1.43,0 -2.8,0.62 -4.1,1.85 -1.3,1.24 -2.23,2.81 -2.79,4.72 l -2.43,8.3 h -3.14 z"
   id="path44" />
						<path
   class="st0"
   d="m 403.12,113.36 c -0.62,0.09 -1.18,0.15 -1.68,0.2 -0.5,0.04 -0.97,0.07 -1.4,0.07 -1.2,0 -2.07,-0.2 -2.6,-0.61 -0.53,-0.4 -0.8,-1.06 -0.8,-1.97 0,-0.34 0.07,-0.87 0.21,-1.59 0.14,-0.72 0.33,-1.48 0.56,-2.28 l 2.56,-8.5 h -2.99 l 0.67,-2.18 h 2.98 l 1.15,-3.84 3.28,-0.77 -1.35,4.61 h 3.53 l -0.67,2.18 h -3.53 l -2.61,8.84 c -0.21,0.68 -0.35,1.19 -0.43,1.53 -0.08,0.34 -0.12,0.6 -0.12,0.78 0,0.48 0.15,0.83 0.43,1.03 0.29,0.21 0.79,0.31 1.48,0.31 0.34,0 0.68,-0.02 1.02,-0.07 0.34,-0.05 0.68,-0.12 1.02,-0.22 z"
   id="path46" />
					</g>
				</g>
				<g
   id="g62">
					<path
   class="st1"
   d="M 37.17,36.47 C 61.12,11.79 90.01,5.5 101.57,22.31 113.18,39.16 103.13,72.88 79.11,97.59 55.16,122.18 26.22,128.53 14.66,111.75 3.12,94.89 13.22,61.15 37.17,36.47 Z"
   id="path52" />
					<path
   class="st2"
   d="m 52.93,23.4 c -2.44,2.01 -5.28,4.29 -7.86,7 C 24.12,51.84 15.41,81.3 25.73,95.99 36.34,110.77 62.23,105.43 83.49,83.66 94.9,72.04 102.76,58.58 105.89,46 106.84,36.75 105.55,28.53 101.52,22.31 92.38,9.35 72.62,10.36 52.93,23.4 Z"
   id="path54" />
					<g
   id="g60">
						<path
   class="st3"
   d="m 81.77,22.54 c 2.81,2.94 1.09,9.24 -3.67,14.3 -4.86,4.9 -11.06,6.69 -13.73,3.81 -2.91,-2.89 -1.27,-9.25 3.56,-14.31 4.84,-5.03 11.1,-6.53 13.84,-3.8 z"
   id="path56" />
						<path
   class="st3"
   d="m 64.89,109.65 c -11.3,8.66 -22.53,13 -33.83,11.25 5.25,-0.12 8.34,-5.11 11.43,-12.44 3.24,-7.58 5.15,-14.51 6.63,-21.03 2.29,-10.34 2.43,-17.65 1.37,-19.27 -1.97,-2.65 -6.39,-1.99 -11.29,1 -2.36,1.34 -5.46,0.49 -1.78,-4.24 3.77,-4.73 18.66,-15.97 24.03,-17.75 5.86,-1.8 12.62,0.62 10.36,7.32 -1.59,4.92 -22.54,60.71 -6.92,55.16 z"
   id="path58" />
					</g>
				</g>
			</g>
		</g>
	</g>
</g>
</svg>
