<svg width="24" height="24" viewBox="0 0 24 24" fill="none" xmlns="http://www.w3.org/2000/svg">
<path d="M5.175 3.25C5.25 4.3625 5.4375 5.45 5.7375 6.4875L4.2375 7.9875C3.725 6.4875 3.4 4.9 3.2875 3.25H5.175ZM17.5 18.275C18.5625 18.575 19.65 18.7625 20.75 18.8375V20.7C19.1 20.5875 17.5125 20.2625 16 19.7625L17.5 18.275ZM6.375 0.75H2C1.3125 0.75 0.75 1.3125 0.75 2C0.75 13.7375 10.2625 23.25 22 23.25C22.6875 23.25 23.25 22.6875 23.25 22V17.6375C23.25 16.95 22.6875 16.3875 22 16.3875C20.45 16.3875 18.9375 16.1375 17.5375 15.675C17.4125 15.625 17.275 15.6125 17.15 15.6125C16.825 15.6125 16.5125 15.7375 16.2625 15.975L13.5125 18.725C9.975 16.9125 7.075 14.025 5.275 10.4875L8.025 7.7375C8.375 7.3875 8.475 6.9 8.3375 6.4625C7.875 5.0625 7.625 3.5625 7.625 2C7.625 1.3125 7.0625 0.75 6.375 0.75Z" fill="white"/>
</svg>
