<svg width="21" height="21" viewBox="0 0 21 21" fill="none" xmlns="http://www.w3.org/2000/svg">
<path d="M5.07331 20.5962H1.00423V7.49239H5.07331V20.5962ZM3.03632 5.70493C1.73534 5.70493 0.679688 4.62686 0.679688 3.32587C0.679687 2.70085 0.927975 2.10143 1.36993 1.65948C1.81188 1.21753 2.4113 0.969238 3.03632 0.969238C3.66134 0.969238 4.26076 1.21753 4.70271 1.65948C5.14467 2.10143 5.39295 2.70085 5.39295 3.32587C5.39295 4.62686 4.3373 5.70493 3.03632 5.70493ZM20.3024 20.5962H16.2424V14.2174C16.2424 12.697 16.2116 10.7477 14.1269 10.7477C12.0114 10.7477 11.6869 12.3991 11.6869 14.1081V20.5962H7.62201V7.49239H11.5243V9.27984H11.581C12.1243 8.25013 13.4512 7.16364 15.4307 7.16364C19.5489 7.16364 20.3059 9.87566 20.3059 13.398V20.5962H20.3024Z" fill="#002654"/>
</svg>
