<?xml version="1.0" encoding="UTF-8" standalone="no"?>
<svg
   width="110"
   height="106"
   viewBox="0 0 110 106"
   fill="none"
   version="1.1"
   id="svg4"
   xmlns="http://www.w3.org/2000/svg"
   xmlnsSvg="http://www.w3.org/2000/svg">
  <defs
     id="defs8" />
  <path
     d="M55 53.3914C54.7396 53.5409 53.2943 54.1636 50.6641 55.2596C48.0339 56.3556 46.5104 57.0531 46.0938 57.352C48.0729 60.1917 49.974 62.6328 51.7969 64.6754C51.3281 65.6718 50.651 67.9883 49.7656 71.6251C48.8802 75.2619 47.9297 79.4467 46.9141 84.1795C45.8984 88.9122 45.3646 91.3783 45.3125 91.5775C45.2604 91.4281 44.7135 91.2288 43.6719 90.9797C42.6302 90.7306 41.5234 90.2698 40.3516 89.5973C39.1797 88.9247 38.4115 87.9906 38.0469 86.7949C37.2135 84.1047 36.5104 80.0694 35.9375 74.689C35.3646 69.3085 34.9219 64.5135 34.6094 60.3038C34.2969 56.0941 33.9583 53.765 33.5938 53.3167C33.2292 53.4661 32.4089 53.8647 31.1328 54.5123C29.8568 55.16 28.5417 55.7329 27.1875 56.2311C25.625 56.7791 23.4896 57.5264 20.7812 58.4729C18.0729 59.4195 15.9375 60.1792 14.375 60.7521C12.8125 61.3251 11.0807 62.0101 9.17969 62.8072C7.27865 63.6043 5.74219 64.4138 4.57031 65.2358C3.39844 66.0578 2.5 66.8923 1.875 67.7392C0.625 70.9276 0 83.6813 0 106H110C110 100.42 109.857 93.1468 109.57 84.1795C109.284 75.2121 108.802 69.732 108.125 67.7392C107.5 66.8923 106.602 66.0578 105.43 65.2358C104.258 64.4138 102.721 63.6043 100.82 62.8072C98.9193 62.0101 97.1875 61.3251 95.625 60.7521C94.0625 60.1792 91.9271 59.4195 89.2188 58.4729C86.5104 57.5264 84.375 56.7791 82.8125 56.2311C81.4583 55.7329 80.1432 55.16 78.8672 54.5123C77.5911 53.8647 76.7708 53.4661 76.4062 53.3167C76.0417 53.765 75.7422 56.0941 75.5078 60.3038C75.2734 64.5135 74.9089 69.3085 74.4141 74.689C73.9193 80.0694 73.2552 84.1047 72.4219 86.7949C72.0573 87.9906 71.2891 88.9247 70.1172 89.5973C68.9453 90.2698 67.8385 90.7306 66.7969 90.9797C65.7552 91.2288 65.2083 91.4281 65.1562 91.5775C61.9271 76.4824 59.6094 67.5151 58.2031 64.6754C60.026 62.6328 61.9271 60.1917 63.9062 57.352C63.4896 57.0531 61.9661 56.3556 59.3359 55.2596C56.7057 54.1636 55.2604 53.5409 55 53.3914ZM55 0.782715C61.9271 0.782715 67.8255 3.11175 72.6953 7.76981C77.5651 12.4279 80 18.0699 80 24.6958C80 31.3217 77.5651 36.9636 72.6953 41.6217C67.8255 46.2798 61.9271 48.6088 55 48.6088C48.0729 48.6088 42.1745 46.2798 37.3047 41.6217C32.4349 36.9636 30 31.3217 30 24.6958C30 18.0699 32.4349 12.4279 37.3047 7.76981C42.1745 3.11175 48.0729 0.782715 55 0.782715ZM76.25 24.8452C74.2188 25.2438 71.3151 25.0569 67.5391 24.2848C63.763 23.5126 60.5729 22.6034 57.9688 21.5572C56.1979 20.8099 54.5052 19.9505 52.8906 18.979C51.276 18.0076 49.4271 16.787 47.3438 15.3174C45.2604 13.8477 43.6458 12.7641 42.5 12.0667C43.3333 17.9951 40.4167 22.2297 33.75 24.7705C33.8021 30.4 35.8984 35.1826 40.0391 39.1183C44.1797 43.054 49.1667 45.0218 55 45.0218C60.8333 45.0218 65.8203 43.054 69.9609 39.1183C74.1016 35.1826 76.1979 30.4249 76.25 24.8452Z"
     
     id="path2"
      />
</svg>
