<?xml version="1.0" encoding="UTF-8" standalone="no"?>
<svg
   width="110"
   height="110"
   viewBox="0 0 110 110"
   fill="none"
   version="1.1"
   id="svg4"
   xmlns="http://www.w3.org/2000/svg"
   xmlnsSvg="http://www.w3.org/2000/svg">
  <defs
     id="defs8" />
  <path
     d="M55 0C61.9271 0 67.8255 2.4349 72.6953 7.30469C77.5651 12.1745 80 18.0729 80 25C80 31.9271 77.5651 37.8255 72.6953 42.6953C67.8255 47.5651 61.9271 50 55 50C48.0729 50 42.1745 47.5651 37.3047 42.6953C32.4349 37.8255 30 31.9271 30 25C30 18.0729 32.4349 12.1745 37.3047 7.30469C42.1745 2.4349 48.0729 0 55 0ZM76.25 25.1562C74.2188 25.5729 71.3151 25.3776 67.5391 24.5703C63.763 23.763 60.5729 22.8125 57.9688 21.7188C56.1979 20.9375 54.5052 20.0391 52.8906 19.0234C51.276 18.0078 49.4271 16.7318 47.3438 15.1953C45.2604 13.6589 43.6458 12.526 42.5 11.7969C43.3333 17.9948 40.4167 22.4219 33.75 25.0781C33.8021 30.9635 35.8984 35.9635 40.0391 40.0781C44.1797 44.1927 49.1667 46.25 55 46.25C60.8333 46.25 65.8203 44.1927 69.9609 40.0781C74.1016 35.9635 76.1979 30.9896 76.25 25.1562ZM65.1562 94.9219H45.3125C44.7917 94.9219 44.1146 94.8177 43.2812 94.6094C42.4479 94.401 41.4583 93.8802 40.3125 93.0469C39.1667 92.2135 38.4115 91.1719 38.0469 89.9219C37.2135 87.1094 36.5104 82.8906 35.9375 77.2656C35.3646 71.6406 34.9219 66.6276 34.6094 62.2266C34.2969 57.8255 33.9583 55.3906 33.5938 54.9219C33.2292 55.0781 32.4089 55.4948 31.1328 56.1719C29.8568 56.849 28.5417 57.4479 27.1875 57.9688C25.625 58.5417 23.4896 59.3229 20.7812 60.3125C18.0729 61.3021 15.9375 62.0964 14.375 62.6953C12.8125 63.2943 11.0807 64.0104 9.17969 64.8438C7.27865 65.6771 5.74219 66.5234 4.57031 67.3828C3.39844 68.2422 2.5 69.1146 1.875 70C0.625 73.3333 0 86.6667 0 110H110C110 104.167 109.857 96.5625 109.57 87.1875C109.284 77.8125 108.802 72.0833 108.125 70C107.5 69.1146 106.602 68.2422 105.43 67.3828C104.258 66.5234 102.721 65.6771 100.82 64.8438C98.9193 64.0104 97.1875 63.2943 95.625 62.6953C94.0625 62.0964 91.9271 61.3021 89.2188 60.3125C86.5104 59.3229 84.375 58.5417 82.8125 57.9688C81.4583 57.4479 80.1432 56.849 78.8672 56.1719C77.5911 55.4948 76.7708 55.0781 76.4062 54.9219C76.0417 55.3906 75.7422 57.8255 75.5078 62.2266C75.2734 66.6276 74.9089 71.6406 74.4141 77.2656C73.9193 82.8906 73.2552 87.1094 72.4219 89.9219C72.0573 91.1719 71.3021 92.2135 70.1562 93.0469C69.0104 93.8802 68.0208 94.401 67.1875 94.6094C66.3542 94.8177 65.6771 94.9219 65.1562 94.9219ZM55 57.5L70 52.5V67.5L55 62.5L40 67.5V52.5L55 57.5ZM55 75C54.375 75 53.8021 74.7526 53.2812 74.2578C52.7604 73.763 52.5 73.1771 52.5 72.5C52.5 71.8229 52.7604 71.237 53.2812 70.7422C53.8021 70.2474 54.375 70 55 70C55.625 70 56.1979 70.2474 56.7188 70.7422C57.2396 71.237 57.5 71.8229 57.5 72.5C57.5 73.1771 57.2396 73.763 56.7188 74.2578C56.1979 74.7526 55.625 75 55 75ZM55 85C54.375 85 53.8021 84.7526 53.2812 84.2578C52.7604 83.763 52.5 83.1771 52.5 82.5C52.5 81.8229 52.7604 81.237 53.2812 80.7422C53.8021 80.2474 54.375 80 55 80C55.625 80 56.1979 80.2474 56.7188 80.7422C57.2396 81.237 57.5 81.8229 57.5 82.5C57.5 83.1771 57.2396 83.763 56.7188 84.2578C56.1979 84.7526 55.625 85 55 85Z"
     
     id="path2"
      />
</svg>
