<svg width="26" height="26" viewBox="0 0 26 26" fill="none" xmlns="http://www.w3.org/2000/svg">
<circle cx="13" cy="13" r="13" fill="#F48635"/>
<path d="M12.7619 5.0677C12.8367 4.83737 13.1626 4.83737 13.2374 5.0677L14.8893 10.1517C14.9228 10.2547 15.0188 10.3245 15.1271 10.3245H20.4727C20.7149 10.3245 20.8156 10.6344 20.6197 10.7767L16.295 13.9188C16.2073 13.9825 16.1707 14.0953 16.2042 14.1983L17.856 19.2823C17.9309 19.5127 17.6673 19.7042 17.4713 19.5618L13.1466 16.4197C13.059 16.3561 12.9404 16.3561 12.8527 16.4197L8.52801 19.5618C8.33208 19.7042 8.06846 19.5127 8.1433 19.2823L9.7952 14.1983C9.82866 14.0953 9.792 13.9825 9.70438 13.9188L5.37966 10.7767C5.18373 10.6344 5.28442 10.3245 5.52661 10.3245H10.8723C10.9806 10.3245 11.0765 10.2547 11.11 10.1517L12.7619 5.0677Z" fill="white"/>
</svg>
