<svg width="26" height="26" viewBox="0 0 26 26" fill="none" xmlns="http://www.w3.org/2000/svg">
<circle cx="13" cy="13" r="13" fill="#EC1C2E"/>
<path d="M12.7619 5.06526C12.8367 4.83493 13.1626 4.83493 13.2374 5.06526L14.8893 10.1493C14.9228 10.2523 15.0188 10.322 15.1271 10.322H20.4727C20.7149 10.322 20.8156 10.6319 20.6197 10.7743L16.295 13.9164C16.2073 13.98 16.1707 14.0929 16.2042 14.1959L17.856 19.2799C17.9309 19.5102 17.6673 19.7017 17.4713 19.5594L13.1466 16.4173C13.059 16.3536 12.9404 16.3536 12.8527 16.4173L8.52801 19.5594C8.33208 19.7017 8.06846 19.5102 8.1433 19.2799L9.7952 14.1959C9.82866 14.0929 9.792 13.98 9.70438 13.9164L5.37966 10.7743C5.18373 10.6319 5.28442 10.322 5.52661 10.322H10.8723C10.9806 10.322 11.0765 10.2523 11.11 10.1493L12.7619 5.06526Z" fill="white"/>
</svg>
