<svg width="23" height="16" viewBox="0 0 23 16" fill="none" xmlns="http://www.w3.org/2000/svg">
<path d="M21.9901 2.76149C21.8624 2.28787 21.613 1.85593 21.2665 1.50869C20.92 1.16144 20.4887 0.910984 20.0153 0.782255C18.2602 0.300334 11.2388 0.292489 11.2388 0.292489C11.2388 0.292489 4.21842 0.284644 2.46221 0.74527C1.98918 0.879924 1.55869 1.13392 1.2121 1.48287C0.865499 1.83182 0.614425 2.26402 0.482978 2.73796C0.0201098 4.49304 0.0156266 8.13322 0.0156266 8.13322C0.0156266 8.13322 0.0111437 11.7913 0.470649 13.5285C0.728421 14.489 1.48492 15.2477 2.44652 15.5066C4.21954 15.9885 11.222 15.9964 11.222 15.9964C11.222 15.9964 18.2434 16.0042 19.9985 15.5447C20.472 15.4162 20.9038 15.1663 21.2511 14.8198C21.5984 14.4733 21.8493 14.0421 21.9789 13.5688C22.4429 11.8149 22.4462 8.17581 22.4462 8.17581C22.4462 8.17581 22.4686 4.51658 21.9901 2.76149ZM8.9928 11.5055L8.9984 4.78108L14.8341 8.14892L8.9928 11.5055Z" fill="#002654"/>
</svg>
